<svg width="32" height="32" viewBox="0 0 32 32" fill="none" xmlns="http://www.w3.org/2000/svg">
  <!-- Background -->
  <rect width="32" height="32" rx="6" fill="#0D0608"/>
 
  <!-- Signal arcs - left -->
  <path d="M11 18 A5 5 0 0 1 11 14" fill="none" stroke="#F87171" stroke-width="1" stroke-linecap="round" stroke-opacity="0.5"/>
  <path d="M8.5 20 A8 8 0 0 1 8.5 12" fill="none" stroke="#EF4444" stroke-width="0.7" stroke-linecap="round" stroke-opacity="0.25"/>
 
  <!-- Signal arcs - right -->
  <path d="M21 18 A5 5 0 0 0 21 14" fill="none" stroke="#F87171" stroke-width="1" stroke-linecap="round" stroke-opacity="0.5"/>
  <path d="M23.5 20 A8 8 0 0 0 23.5 12" fill="none" stroke="#EF4444" stroke-width="0.7" stroke-linecap="round" stroke-opacity="0.25"/>
 
  <!-- Tower body - angular tapered -->
  <polygon points="14,12 18,12 19.5,26 12.5,26" fill="#DC2626" fill-opacity="0.8"/>
  <!-- Left face highlight -->
  <polygon points="14,12 16,12 16,26 12.5,26" fill="#EF4444" fill-opacity="0.2"/>
 
  <!-- Chevron cuts -->
  <line x1="13" y1="17" x2="16" y2="15" stroke="#0D0608" stroke-width="0.8"/>
  <line x1="16" y1="15" x2="19" y2="17" stroke="#0D0608" stroke-width="0.8"/>
  <line x1="13.2" y1="21" x2="16" y2="19" stroke="#0D0608" stroke-width="0.8"/>
  <line x1="16" y1="19" x2="18.8" y2="21" stroke="#0D0608" stroke-width="0.8"/>
 
  <!-- Angular base wings -->
  <polygon points="10,26 12.5,26 11.5,28.5" fill="#DC2626" fill-opacity="0.4"/>
  <polygon points="22,26 19.5,26 20.5,28.5" fill="#B91C1C" fill-opacity="0.4"/>
  <!-- Base platform -->
  <rect x="11" y="26" width="10" height="2.5" rx="1" fill="#DC2626" fill-opacity="0.5"/>
  <rect x="11" y="26" width="10" height="1" rx="0.5" fill="#F87171" fill-opacity="0.15"/>
 
  <!-- Beacon - triangular -->
  <polygon points="16,7 19,11 13,11" fill="#DC2626"/>
  <polygon points="16,7 16,11 13,11" fill="#EF4444" fill-opacity="0.25"/>
 
  <!-- Beacon core -->
  <circle cx="16" cy="9.5" r="1.5" fill="#EF4444"/>
  <circle cx="15.7" cy="9.2" r="0.6" fill="#FFFFFF"/>
</svg>
 